<?xml version="1.0" encoding="UTF-8" standalone="no"?>
<!-- Created with Inkscape (http://www.inkscape.org/) -->

<svg
   xmlns:dc="http://purl.org/dc/elements/1.1/"
   xmlns:cc="http://creativecommons.org/ns#"
   xmlns:rdf="http://www.w3.org/1999/02/22-rdf-syntax-ns#"
   xmlns:svg="http://www.w3.org/2000/svg"
   xmlns="http://www.w3.org/2000/svg"
   xmlns:sodipodi="http://sodipodi.sourceforge.net/DTD/sodipodi-0.dtd"
   xmlns:inkscape="http://www.inkscape.org/namespaces/inkscape"
   width="92mm"
   height="92mm"
   viewBox="0 0 92 91.999999"
   version="1.1"
   id="svg8"
   inkscape:export-filename="/ws/wolfshark/src/assets/logo.png"
   inkscape:export-xdpi="78.959999"
   inkscape:export-ydpi="78.959999"
   inkscape:version="0.92.3 (2405546, 2018-03-11)"
   sodipodi:docname="logo.svg">
  <defs
     id="defs2" />
  <sodipodi:namedview
     id="base"
     pagecolor="#ffffff"
     bordercolor="#666666"
     borderopacity="1.0"
     inkscape:pageopacity="0.0"
     inkscape:pageshadow="2"
     inkscape:zoom="0.39532785"
     inkscape:cx="100.91513"
     inkscape:cy="-225.26783"
     inkscape:document-units="mm"
     inkscape:current-layer="layer1"
     showgrid="false"
     fit-margin-top="0"
     fit-margin-left="0"
     fit-margin-right="0"
     fit-margin-bottom="0"
     inkscape:window-width="1366"
     inkscape:window-height="713"
     inkscape:window-x="0"
     inkscape:window-y="27"
     inkscape:window-maximized="1" />
  <metadata
     id="metadata5">
    <rdf:RDF>
      <cc:Work
         rdf:about="">
        <dc:format>image/svg+xml</dc:format>
        <dc:type
           rdf:resource="http://purl.org/dc/dcmitype/StillImage" />
        <dc:title></dc:title>
      </cc:Work>
    </rdf:RDF>
  </metadata>
  <g
     inkscape:label="Layer 1"
     inkscape:groupmode="layer"
     id="layer1"
     transform="translate(-2.8986422,11.160819)">
    <path
       style="fill:#000000;stroke-width:0.44563937"
       d="m 31.503633,-0.21409176 c -0.349343,-0.04281 -1.918138,0.97845659 -4.717438,3.06810656 -1.390593,1.0380688 -2.116587,1.9125202 -2.116587,2.5484079 0,0.5323777 -0.313997,1.2282714 -0.697814,1.5468091 -1.013789,0.8413717 -1.918346,2.7031575 -3.994585,8.2201982 -2.204386,5.85757 -2.749844,6.274818 -8.80179,6.740008 -2.1372844,0.164285 -3.885922,0.455189 -3.885922,0.646315 0,0.191127 1.6545376,0.973386 3.676626,1.738154 7.339608,2.775884 8.32834,3.233885 8.5358,3.955844 0.116076,0.403946 0.548695,3.140663 0.961913,6.081882 0.413216,2.941219 0.927314,5.81209 1.141917,6.379526 0.625406,1.653638 0.491558,1.794032 -1.460823,1.532163 -2.069372,-0.277561 -2.066003,-0.217275 0.137012,2.617386 0.691355,0.889579 2.315765,2.118083 3.613789,2.732667 1.526959,0.722983 3.112329,1.999144 4.498219,3.621347 3.324694,3.891601 7.508863,6.865663 12.613066,8.965731 0.644286,-0.845058 1.886974,-2.763651 1.886974,-2.973143 0,-0.04353 -0.419708,-0.04519 -0.932621,-0.0037 -0.745142,0.06017 -1.088172,0.01622 -1.707914,-0.218272 -0.426591,-0.161405 -0.88291,-0.41182 -1.013884,-0.556549 -0.478803,-0.529067 -0.489697,-0.517843 3.554732,-3.793321 1.422922,-1.152389 2.302794,-1.987548 2.940073,-2.791723 1.425527,-1.798854 1.643893,-1.952795 3.304805,-2.330135 0.430419,-0.09779 1.049629,-0.685003 2.880071,-2.731721 0.594627,-0.664884 1.191225,-1.209006 1.325702,-1.209006 0.134457,0 0.352553,0.11946 0.484734,0.265519 0.364009,0.402224 0.907554,2.324852 0.907583,3.209842 v 0.781436 l 0.532454,-0.07181 c 0.471626,-0.06326 0.542511,-0.03393 0.619858,0.255123 0.215379,0.804615 0.09419,1.148465 -0.933568,2.64668 -1.232886,1.797232 -1.394042,2.335362 -1.332787,4.449557 0.142165,4.903003 -0.03479,7.900553 -0.617497,10.461517 -0.490787,2.156955 -0.778914,2.801895 -1.737679,3.891117 -0.409119,0.464786 -0.63266,0.900771 -0.840022,1.637049 -0.0043,0.01526 -0.0094,0.02876 -0.0137,0.04394 2.432063,-1.715113 4.639491,-3.540698 6.519846,-5.412416 l 2.529982,-2.518171 3.866078,-0.297173 c 5.093157,-0.391494 11.204887,-1.75212 14.486813,-3.224961 3.823554,-1.715911 4.065875,-2.20731 1.458934,-2.958969 l -2.143992,-0.617968 1.426335,-0.752144 c 0.784411,-0.413784 2.288271,-0.755195 3.342129,-0.758287 1.752265,-0.0051 2.090164,-0.205154 3.949232,-2.339584 1.118083,-1.283695 2.511741,-2.988797 3.096925,-3.789071 0.955338,-1.306502 0.9944,-1.524717 0.381742,-2.137373 -1.501115,-1.501149 -7.888163,-2.512277 -20.886176,-3.3072 -4.044174,-0.247328 -8.387779,-0.571519 -9.652206,-0.720491 l -2.298953,-0.271187 -2.255489,-3.69127 c -1.240695,-2.030325 -3.293605,-4.827285 -4.562002,-6.215113 -2.206665,-2.414448 -4.666603,-4.147943 -5.17052,-3.644028 -0.130573,0.130575 0.02424,1.847904 0.343946,3.816473 0.694657,4.277555 0.291191,6.445659 -1.438619,7.729322 -1.156271,0.858055 -1.263845,0.861531 -3.565126,0.11953 -1.305076,-0.420797 -3.60814,-1.563316 -5.117606,-2.538958 L 31.881127,35.840227 31.568364,33.08063 c -0.460737,-4.060727 -0.779815,-4.37179 -2.191234,-2.135956 -0.654706,1.037123 -1.430327,1.81146 -1.723508,1.720672 -0.293186,-0.09078 -1.317332,-1.651109 -2.275805,-3.46733 l -1.742408,-3.302024 0.718128,-3.580716 c 0.394987,-1.969373 0.943075,-5.185032 1.217982,-7.145846 1.004193,-7.1626388 2.307469,-10.8039127 4.940436,-13.8026956 0.899177,-1.02410524 1.230702,-1.55153476 0.991678,-1.58082616 z"
       id="path3724"
       inkscape:connector-curvature="0" />
  </g>
</svg>
